<svg width="430" height="200" viewBox="0 0 372 153" fill="none" xmlns="http://www.w3.org/2000/svg">
  <path d="M153.47 102.5C154.63 103.59 155.21 104.13 155.21 104.13C155.79 104.68 156.37 105.22 156.95 105.77C157.53 106.32 158.11 106.86 158.69 107.4C158.69 107.4 159.27 107.94 160.43 109.03C164.26 104.82 165.48 100.53 165.97 97.95C166.27 96.62 166.31 95.63 166.37 94.97C166.43 94.31 166.45 93.98 166.45 93.98C166.66 84.58 163.46 76.49 159.71 69.07L159.69 69.02C158.31 66.38 156.77 63.62 154.69 60.97C152.63 58.34 149.87 55.74 146.34 54.15L146.27 54.12C144.28 53.23 142.21 52.84 140.19 52.8C137.25 52.78 134.32 53.42 131.6 55.05C130.25 55.89 128.95 56.96 127.9 58.38C126.86 59.8 126.12 61.5 125.79 63.26L125.77 63.34C125.69 64.05 125.63 64.76 125.59 65.47C125.56 68.37 126.83 71.27 128.49 73.2C130.15 75.18 132.07 76.51 133.99 77.52C137.85 79.48 141.78 80.41 145.96 80.59H146.02C146.02 80.59 147 80.6 148.95 80.61C150.9 80.55 153.84 80.49 157.71 79.96C165.35 78.86 177.19 76.26 190.13 67.28C189.21 65.98 188.75 65.33 188.75 65.33C188.29 64.68 187.83 64.03 187.37 63.38C186.91 62.73 186.45 62.08 185.99 61.43C185.99 61.43 185.53 60.78 184.61 59.48C173.41 67.26 163.05 69.55 156.42 70.5C153.05 70.95 150.5 71 148.81 71.06C147.12 71.05 146.27 71.04 146.27 71.04H146.23C143.56 70.95 140.67 70.22 138.41 69.06C137.29 68.48 136.37 67.76 135.83 67.11C135.29 66.43 135.13 65.98 135.12 65.42C135.16 65.26 135.17 65.1 135.16 64.93V64.91C135.3 64.32 135.6 63.78 136.52 63.2C137.41 62.65 138.73 62.32 139.98 62.33C140.85 62.34 141.68 62.53 142.33 62.82L142.36 62.83C145.84 64.33 148.7 68.55 151.18 73.42L151.2 73.46C154.55 79.95 157.07 87.1 156.86 93.54C156.86 93.54 156.84 93.76 156.8 94.19C156.75 94.62 156.74 95.29 156.54 96.1C156.29 97.79 155.58 100.14 153.47 102.5Z" fill="#FFC400"/>
  <path d="M334.648 153C324.879 144.45 315.642 135.314 307 125.661C317.67 124.344 328.584 124.998 339 127.59C339.009 127.59 336.475 145.225 334.648 153Z" fill="#ED50B4"/>
  <path d="M35.6901 89.26C34.7401 89.26 33.7201 89.1 32.6401 88.78C25.1301 86.58 18.3501 82.37 13.0601 76.61L20.0901 70.15C23.4701 73.83 27.6301 76.7 32.2501 78.55C31.6601 76.59 30.9201 74.61 30.1401 72.56C28.3701 67.85 26.5301 62.99 26.3001 57.53C26.2701 56.75 26.1801 54.67 27.4701 52.76C29.1001 50.36 32.8301 48.54 37.9801 51.26L52.5201 58.95C52.8201 59.11 53.0801 59.24 53.3101 59.34C52.7801 57.44 51.7201 55.49 50.6001 53.43C48.7501 50.03 46.6501 46.17 46.4701 41.52C46.3201 37.65 47.8901 35.46 49.2401 34.31C51.8101 32.11 54.9101 32.36 56.7501 32.51C59.4601 32.73 62.1401 32.6 64.7601 32.13L66.4401 41.54C63.0301 42.15 59.5501 42.31 56.1001 42.04C56.4301 44.17 57.6301 46.37 58.9901 48.87C60.3701 51.41 61.9401 54.29 62.7101 57.55C63.6801 61.62 62.7601 65.22 60.1801 67.43C57.1301 70.05 53.0501 70.04 48.0601 67.4L36.4601 61.27C37.0701 63.89 38.0601 66.5 39.0801 69.2C40.3401 72.55 41.6501 76.01 42.3901 79.75C43.3201 84.43 41.3001 86.82 40.0101 87.83C38.7801 88.78 37.3401 89.26 35.6901 89.26Z" fill="#F99CDB"/>
  <path d="M95.9398 44.87C100.988 44.87 105.08 40.7778 105.08 35.73C105.08 30.6821 100.988 26.59 95.9398 26.59C90.8919 26.59 86.7998 30.6821 86.7998 35.73C86.7998 40.7778 90.8919 44.87 95.9398 44.87Z" fill="#B3F5FF"/>
  <path d="M91.43 82.65C89.45 89.98 87.46 97.3 85.48 104.63C89.37 104.99 93.26 105.35 97.15 105.71C96.41 98.05 91.43 82.65 91.43 82.65Z" fill="#FFC400"/>
  <path d="M368.334 109.465C362.723 104.35 357.124 99.2317 351.512 94.1173C349.412 97.4115 347.313 100.706 345.213 104C352.362 106.847 368.334 109.465 368.334 109.465Z" fill="#FFC400"/>
  <path d="M230.95 30.64C230.08 29.3 227.72 25.81 227.72 25.81C227.72 25.81 231.01 22.67 232.52 21.34C237.94 16.56 243.37 11.79 248.79 7.01001C245.97 23.69 245.4 40.76 247.09 57.59C247.09 57.58 236.31 38.92 230.95 30.64Z" fill="#ED50B4"/>
  <path d="M185.87 32.74C189.112 32.74 191.74 30.1119 191.74 26.87C191.74 23.6281 189.112 21 185.87 21C182.628 21 180 23.6281 180 26.87C180 30.1119 182.628 32.74 185.87 32.74Z" fill="#DEEBFF"/>
  <path d="M51.9198 114.33C55.1617 114.33 57.7898 111.702 57.7898 108.46C57.7898 105.218 55.1617 102.59 51.9198 102.59C48.6779 102.59 46.0498 105.218 46.0498 108.46C46.0498 111.702 48.6779 114.33 51.9198 114.33Z" fill="#DEEBFF"/>
  <path d="M20.43 129.89C17.71 129.68 14.94 129.97 12.32 130.71C11.32 124.63 12.7 118.19 16.1 113.06C18.57 113.7 21.04 114.34 23.51 114.98C20.89 120 20.43 129.89 20.43 129.89Z" fill="#FFAB00"/>
  <path d="M210.78 80.1401C208.51 76.2401 206.23 72.3401 203.96 68.4301C208.49 61.7901 215.86 58.1801 224.18 58.5401C224.78 63.0001 226.05 67.5701 227.92 71.9801C227.92 71.9901 215.61 74.8101 210.78 80.1401Z" fill="#79E2F2"/>
  <path d="M110.2 152.68C112.26 137.87 115.23 123.19 119.09 108.75C127.13 118.06 133.42 128.88 137.53 140.47C137.53 140.47 118.87 149.42 110.2 152.68Z" fill="#2684FF"/>
  <path d="M151.017 26.6548C141.277 22.5038 131.793 17.7619 122.638 12.4632C130.481 8.76334 139.033 6.52753 147.71 5.90858C147.71 5.90858 150.387 20.1877 151.017 26.6548Z" fill="#2684FF"/>
  <path d="M244.71 119.4L242.4 110.13C245.76 109.29 249.24 108.88 252.68 108.94C252.2 106.83 250.86 104.72 249.34 102.32C247.79 99.88 246.03 97.1101 245.04 93.91C243.8 89.92 244.48 86.26 246.89 83.89C249.76 81.06 253.83 80.8 258.99 83.1L270.97 88.43C270.18 85.86 269.02 83.32 267.82 80.6901C266.33 77.43 264.8 74.07 263.81 70.39C262.57 65.78 264.42 63.26 265.64 62.17C267.45 60.53 269.9 60.05 272.91 60.71C280.57 62.4 287.61 66.15 293.28 71.54L286.7 78.46C283.08 75.01 278.73 72.44 274 70.89C274.72 72.8 275.6 74.72 276.51 76.72C278.6 81.29 280.76 86.03 281.36 91.47C281.45 92.25 281.68 94.32 280.51 96.31C279.05 98.8 275.45 100.88 270.13 98.51L255.11 91.82C254.8 91.68 254.53 91.5701 254.29 91.4801C254.94 93.34 256.14 95.21 257.39 97.19C259.47 100.46 261.82 104.17 262.31 108.79C262.72 112.64 261.3 114.92 260.04 116.16C257.63 118.53 254.53 118.49 252.68 118.47C249.97 118.49 247.3 118.76 244.71 119.4Z" fill="#FFC400"/>
  <path d="M343.82 26.48C330.22 32.7 316.25 38.09 302 42.6C305.52 30.81 311.27 19.69 318.84 10C318.83 10 336.41 20.92 343.82 26.48Z" fill="#2684FF"/>
  <path d="M221.81 110.58C225.052 110.58 227.68 107.952 227.68 104.71C227.68 101.468 225.052 98.84 221.81 98.84C218.568 98.84 215.94 101.468 215.94 104.71C215.94 107.952 218.568 110.58 221.81 110.58Z" fill="#DEEBFF"/>
  <path d="M311.44 66.98C314.08 66.26 316.58 65.07 318.81 63.49C321.79 68.88 322.65 75.41 321.16 81.39C318.62 81.61 316.08 81.84 313.54 82.06C314.33 76.45 311.44 66.98 311.44 66.98Z" fill="#79E2F2"/>
  <path d="M1.27365 20.3296C2.96545 18.8566 4.38208 17.0618 5.45649 15.0528C9.62982 18.2711 12.6496 23.1144 13.7288 28.3318C11.9286 29.377 10.132 30.4301 8.33176 31.4754C6.86932 26.7895 1.27365 20.3296 1.27365 20.3296Z" fill="#79E2F2"/>
  <path d="M361.31 64.39C364.552 64.39 367.18 61.7619 367.18 58.52C367.18 55.2781 364.552 52.65 361.31 52.65C358.068 52.65 355.44 55.2781 355.44 58.52C355.44 61.7619 358.068 64.39 361.31 64.39Z" fill="#DEEBFF"/>
  <path d="M47.87 14.74C51.1119 14.74 53.74 12.1119 53.74 8.87C53.74 5.62809 51.1119 3 47.87 3C44.6281 3 42 5.62809 42 8.87C42 12.1119 44.6281 14.74 47.87 14.74Z" fill="#DEEBFF"/>
  <path d="M272.66 29.12C275.902 29.12 278.53 26.4919 278.53 23.25C278.53 20.0081 275.902 17.38 272.66 17.38C269.418 17.38 266.79 20.0081 266.79 23.25C266.79 26.4919 269.418 29.12 272.66 29.12Z" fill="#DEEBFF"/>
</svg>
